Coordinates
version=1
nRows=11
nColumns=63
inDegrees=yes

Units are S.I. units (second, meters, Newtons, ...)
If the header above contains a line with 'inDegrees', this indicates whether rotational values are in degrees (yes) or radians (no).

endheader
time	pelvis_tilt	pelvis_list	pelvis_rotation	pelvis_tx	pelvis_ty	pelvis_tz	hip_flexion_r	hip_adduction_r	hip_rotation_r	knee_angle_r	knee_angle_r_beta	ankle_angle_r	subtalar_angle_r	mtp_angle_r	hip_flexion_l	hip_adduction_l	hip_rotation_l	knee_angle_l	knee_angle_l_beta	ankle_angle_l	subtalar_angle_l	mtp_angle_l	L5_S1_Flex_Ext	L5_S1_Lat_Bending	L5_S1_axial_rotation	L4_L5_Flex_Ext	L4_L5_Lat_Bending	L4_L5_axial_rotation	L3_L4_Flex_Ext	L3_L4_Lat_Bending	L3_L4_axial_rotation	L2_L3_Flex_Ext	L2_L3_Lat_Bending	L2_L3_axial_rotation	L1_L2_Flex_Ext	L1_L2_Lat_Bending	L1_L2_axial_rotation	L1_T12_Flex_Ext	L1_T12_Lat_Bending	L1_T12_axial_rotation	Abs_r3	Abs_r2	Abs_r1	Abs_t1	Abs_t2	neck_flexion	neck_bending	neck_rotation	arm_flex_r	arm_add_r	arm_rot_r	elbow_flex_r	pro_sup_r	wrist_flex_r	wrist_dev_r	arm_flex_l	arm_add_l	arm_rot_l	elbow_flex_l	pro_sup_l	wrist_flex_l	wrist_dev_l
      9.75000000	     -0.44685366	      2.19125023	    -90.93284302	      0.86090918	      0.94409193	      0.05658036	     23.82318904	     -0.88798972	     -1.32900306	     35.52423849	      0.62001493	     -9.44922354	    -14.41584803	      0.00000000	     23.93590399	      1.28236187	     -0.00594611	     36.25763503	      0.63281511	    -10.37974404	    -14.85713523	      0.00000000	     -0.39423342	     -0.12009459	     -0.11908456	     -0.73213089	     -0.15972580	     -0.12652735	     -0.64768609	     -0.29199798	     -0.12652735	     -0.45056938	     -0.29199798	     -0.10419899	     -0.36608516	     -0.24489688	     -0.09675621	     -0.22526498	     -0.18602652	     -0.08931342	     -2.81596991	     -1.35853399	     -0.66231261	      0.00000000	      0.00000000	      0.00000000	      0.00000000	     -0.00000000	     13.67277861	     -5.53537649	     51.81754513	    117.64985602	     83.41501684	      0.00000000	      5.00000014	   -159.91131216	   -185.86662830	    -96.65514637	     57.62205103	     84.74164946	      0.00000000	      5.00000014
      9.76666670	     -0.42111936	      2.26621544	    -90.75478210	      0.86059134	      0.94367933	      0.05654131	     23.87509448	     -0.98427623	     -1.63279918	     35.51668876	      0.61988316	     -9.30891350	    -14.35780057	      0.00000000	     24.07020353	      1.33622694	      0.20187965	     36.32737780	      0.63403235	    -10.35286551	    -14.75565089	      0.00000000	     -0.38689045	     -0.15007870	     -0.27623847	     -0.71849425	     -0.19960467	     -0.29350337	     -0.63562231	     -0.36490136	     -0.29350337	     -0.44217709	     -0.36490136	     -0.24170866	     -0.35926647	     -0.30604049	     -0.22444376	     -0.22106920	     -0.23247191	     -0.20717885	     -2.76351977	     -1.69772030	     -1.53635549	      0.00000000	      0.00000000	      0.00000000	      0.00000000	     -0.00000000	     15.69948815	     -5.78291592	     57.71398804	    116.11988680	     83.61966921	      0.00000000	      5.00000014	   -161.03963551	   -184.55854409	   -100.01261963	     59.21715603	     83.86953802	      0.00000000	      5.00000014
      9.78333330	     -0.33753893	      2.32552043	    -90.80272581	      0.86016345	      0.94301804	      0.05652021	     23.95750641	     -1.05582528	     -1.67707366	     35.55002847	      0.62046505	     -9.12352946	    -14.30227161	      0.00000000	     24.13275719	      1.38541924	      0.22065102	     36.33169923	      0.63410777	    -10.35095013	    -14.75963284	      0.00000000	     -0.37733231	     -0.18767584	     -0.18523918	     -0.70074383	     -0.24960887	     -0.19681663	     -0.61991925	     -0.45631504	     -0.19681663	     -0.43125309	     -0.45631504	     -0.16208428	     -0.35039078	     -0.38270857	     -0.15050683	     -0.21560768	     -0.29070988	     -0.13892938	     -2.69524694	     -2.12302665	     -1.03024475	      0.00000000	      0.00000000	      0.00000000	      0.00000000	     -0.00000000	     16.38313838	     -6.82188298	     60.34841474	    116.30433470	     82.94351805	      0.00000000	      5.00000014	   -161.50268330	   -182.98176877	   -101.27060654	     60.73004851	     82.70576749	      0.00000000	      5.00000014
      9.80000000	     -0.33630909	      2.35941566	    -90.86968412	      0.85992376	      0.94216015	      0.05651033	     24.00060760	     -1.05148649	     -1.72643146	     35.56590880	      0.62074221	     -8.84885691	    -14.18336448	      0.00000000	     24.16649068	      1.36758547	      0.28974653	     36.35707699	      0.63455070	    -10.22645064	    -14.77577395	      0.00000000	     -0.36731236	     -0.20140111	     -0.05743268	     -0.68213578	     -0.26786347	     -0.06102222	     -0.60345748	     -0.48968665	     -0.06102222	     -0.41980130	     -0.48968665	     -0.05025360	     -0.34108626	     -0.41069714	     -0.04666405	     -0.20988228	     -0.31197031	     -0.04307451	     -2.62367546	     -2.27828960	     -0.31942334	      0.00000000	      0.00000000	      0.00000000	      0.00000000	     -0.00000000	     16.35701732	     -8.48174122	     60.72307617	    117.26179528	     82.86056402	      0.00000000	      5.00000014	   -161.90574512	   -180.92156376	   -102.61016734	     62.38525979	     82.28284084	      0.00000000	      5.00000014
      9.81666670	     -0.32971313	      2.38361969	    -90.85300819	      0.85985302	      0.94107540	      0.05645812	     24.03353018	     -1.07284651	     -1.78309189	     35.60985098	      0.62150915	     -8.52945152	    -14.11057851	      0.00000000	     24.22377416	      1.39809289	      0.43776463	     36.43643943	      0.63593584	    -10.04765234	    -14.81054223	      0.00000000	     -0.35502694	     -0.19456222	     -0.02039516	     -0.65932052	     -0.25876775	     -0.02166985	     -0.58327375	     -0.47305858	     -0.02166985	     -0.40576029	     -0.47305858	     -0.01784576	     -0.32967801	     -0.39675127	     -0.01657107	     -0.20286239	     -0.30137688	     -0.01529637	     -2.53592190	     -2.20092672	     -0.11343175	      0.00000000	      0.00000000	      0.00000000	      0.00000000	     -0.00000000	     16.03090445	    -10.47235904	     59.77918036	    118.55997211	     82.51900709	      0.00000000	      5.00000014	   -162.46746614	   -178.09670873	   -104.54553989	     64.68713986	     81.46783232	      0.00000000	      5.00000014
      9.83333330	     -0.33995021	      2.38006582	    -90.83198904	      0.85986430	      0.93994424	      0.05645629	     24.02780533	     -1.07804102	     -1.80244071	     35.65410151	      0.62228146	     -8.17266603	    -14.04948970	      0.00000000	     24.23922401	      1.42132158	      0.60320220	     36.50810493	      0.63718663	     -9.80107881	    -14.86133151	      0.00000000	     -0.34270251	     -0.17786662	     -0.00365921	     -0.63643284	     -0.23656261	     -0.00388791	     -0.56302596	     -0.43246491	     -0.00388791	     -0.39167470	     -0.43246491	     -0.00320180	     -0.31823355	     -0.36270562	     -0.00297310	     -0.19582022	     -0.27551540	     -0.00274440	     -2.44788979	     -2.01206282	     -0.02035140	      0.00000000	      0.00000000	      0.00000000	      0.00000000	     -0.00000000	     15.23377902	    -12.77936468	     57.24589088	    119.68250367	     81.94750617	      0.00000000	      5.00000014	   -163.12810248	   -174.87270513	   -106.76649089	     66.78268766	     80.46220010	      0.00000000	      5.00000014
      9.85000000	     -0.43700830	      2.26817540	    -90.79291889	      0.86000124	      0.93894142	      0.05646554	     23.87312328	     -1.00936531	     -1.84295473	     35.64759565	      0.62216791	     -7.79028054	    -13.91111650	      0.00000000	     24.15190355	      1.38496442	      0.83845138	     36.62771139	      0.63927416	     -9.47997870	    -14.93420739	      0.00000000	     -0.33912877	     -0.13759938	     -0.00561728	     -0.62979605	     -0.18300718	     -0.00596836	     -0.55715466	     -0.33455914	     -0.00596836	     -0.38759028	     -0.33455914	     -0.00491512	     -0.31491498	     -0.28059266	     -0.00456404	     -0.19377818	     -0.21314144	     -0.00421296	     -2.42236292	     -1.55655174	     -0.03124165	      0.00000000	      0.00000000	      0.00000000	      0.00000000	     -0.00000000	     13.98404351	    -15.26750646	     52.89576706	    120.40518454	     81.38972724	      0.00000000	      5.00000014	   -163.87213084	   -171.32440375	   -109.12211937	     68.51927374	     79.70205312	      0.00000000	      5.00000014
      9.86666670	     -0.38426966	      2.19372581	    -90.82169400	      0.86000844	      0.93798915	      0.05648598	     23.81888867	     -1.04029764	     -1.65514516	     35.74532251	      0.62387357	     -7.44291184	    -13.90062131	      0.00000000	     24.04777575	      1.46182079	      0.90921684	     36.63162290	      0.63934243	     -9.19805695	    -14.99991800	      0.00000000	     -0.31286027	     -0.11838778	      0.02616974	     -0.58101280	     -0.15745575	      0.02780535	     -0.51399814	     -0.28784806	      0.02780535	     -0.35756800	     -0.28784806	      0.02289852	     -0.29052205	     -0.24141637	      0.02126291	     -0.17876836	     -0.18338268	      0.01962731	     -2.23472961	     -1.33922630	      0.14554825	      0.00000000	      0.00000000	      0.00000000	      0.00000000	     -0.00000000	     11.49698167	    -17.40569104	     44.62664654	    120.18571127	     79.29491166	      0.00000000	      5.00000014	   -164.76850874	   -167.70493019	   -111.86824907	     68.86467759	     78.10772190	      0.00000000	      5.00000014
      9.88333330	     -0.48254229	      1.91865248	    -90.71548889	      0.86017110	      0.93765203	      0.05658487	     23.43081469	     -0.97878906	     -1.67761782	     35.66732369	      0.62251223	     -7.08718308	    -13.69918466	      0.00000000	     23.73330654	      1.43879502	      1.15386260	     36.65998898	      0.63983751	     -8.83563694	    -15.02740664	      0.00000000	     -0.29892715	     -0.08059071	     -0.12200184	     -0.55513760	     -0.10718564	     -0.12962696	     -0.49110741	     -0.19594825	     -0.12962696	     -0.34164383	     -0.19594825	     -0.10675161	     -0.27758375	     -0.16434057	     -0.09912650	     -0.17080697	     -0.12483501	     -0.09150138	     -2.13520671	     -0.91165822	     -0.67853765	      0.00000000	      0.00000000	      0.00000000	      0.00000000	     -0.00000000	      9.13788911	    -18.73716473	     33.52188859	    117.38439205	     78.55358639	      0.00000000	      5.00000014	   -166.68521274	   -163.74519310	   -116.76785290	     68.68074468	     77.54683986	      0.00000000	      5.00000014
      9.90000000	     -0.36676782	      1.77038200	    -90.81199933	      0.86005310	      0.93729867	      0.05676030	     23.27550786	     -1.03314834	     -1.30984563	     35.71720648	      0.62338285	     -6.84679147	    -13.69273107	      0.00000000	     23.47458791	      1.54246930	      1.09293101	     36.54840918	      0.63789008	     -8.64847310	    -15.11213551	      0.00000000	     -0.26575945	     -0.08977760	     -0.00185709	     -0.49354187	     -0.11940421	     -0.00197315	     -0.43661619	     -0.21828527	     -0.00197315	     -0.30373647	     -0.21828527	     -0.00162495	     -0.24678422	     -0.18307449	     -0.00150888	     -0.15185495	     -0.13906551	     -0.00139282	     -1.89829315	     -1.01558222	     -0.01032856	      0.00000000	      0.00000000	      0.00000000	      0.00000000	     -0.00000000	      4.51360723	    -18.08318194	     13.81923795	    114.70050189	     74.25512013	      0.00000000	      5.00000014	   -168.02477915	   -160.02356029	   -122.10453253	     67.23862777	     78.09714334	      0.00000000	      5.00000014
      9.91666670	     -0.31108335	      1.59791496	    -90.80904395	      0.85995355	      0.93739564	      0.05708788	     23.01604263	     -1.05873735	     -1.07110872	     35.66335786	      0.62244302	     -6.70019910	    -13.60920524	      0.00000000	     23.17056838	      1.61251525	      1.13605238	     36.40097117	      0.63531680	     -8.48591021	    -15.15689873	      0.00000000	     -0.24644272	     -0.09904934	     -0.02797751	     -0.45766878	     -0.13173562	     -0.02972611	     -0.40488075	     -0.24082857	     -0.02972611	     -0.28165939	     -0.24082857	     -0.02448032	     -0.22884671	     -0.20198141	     -0.02273173	     -0.14081737	     -0.15342743	     -0.02098313	     -1.76031574	     -1.12046594	     -0.15560254	      0.00000000	      0.00000000	      0.00000000	      0.00000000	     -0.00000000	      2.18632017	    -14.58046343	    -10.33052470	    108.73695938	     71.49377528	      0.00000000	      5.00000014	   -170.80950160	   -156.44099107	   -132.18009976	     64.97322877	     77.75571364	      0.00000000	      5.00000014
